<svg xmlns="http://www.w3.org/2000/svg" width="16.476" height="15.401" viewBox="0 0 16.476 15.401"><path d="M735.239,2915.687a4.844,4.844,0,1,0-4.822-4.844A4.838,4.838,0,0,0,735.239,2915.687Zm0-8.255a3.411,3.411,0,1,1-3.389,3.411A3.4,3.4,0,0,1,735.239,2907.433Zm2.232,8.729a.716.716,0,0,0-.682.137l-1.551,1.319-1.551-1.319a.715.715,0,0,0-.682-.137c-1,.32-6.006,2.042-6.006,4.523a.717.717,0,0,0,.716.717H742.76a.717.717,0,0,0,.716-.717C743.477,2918.2,738.474,2916.481,737.471,2916.161Zm-8.662,3.807a12.5,12.5,0,0,1,4.258-2.317l1.707,1.451a.716.716,0,0,0,.928,0l1.707-1.451a12.5,12.5,0,0,1,4.258,2.317Z" transform="translate(-727.001 -2906)" fill="#7f7f7f"/></svg>