<svg xmlns="http://www.w3.org/2000/svg" width="16.476" height="15.037" viewBox="0 0 16.476 15.037"><path d="M1186.76,4243.506h-1.971c-.007,0-.012-.055-.019-.064l-3.385-4.139a.717.717,0,0,0-1.008-.108.754.754,0,0,0-.1,1.04l2.661,3.271h-7.4l2.661-3.276a.738.738,0,0,0-.1-1.026.716.716,0,0,0-1.008.09l-3.385,4.153c-.008.008-.012.059-.019.059h-1.972a.66.66,0,0,0-.717.647v2.677a.788.788,0,0,0,.717.8h.23l1.344,5.438a1.341,1.341,0,0,0,1.341,1.009h9.213a1.341,1.341,0,0,0,1.341-1.009l1.344-5.437h.229a.788.788,0,0,0,.716-.8v-2.677A.66.66,0,0,0,1186.76,4243.506Zm-14.327,1.433h13.61v1.253h-13.61Zm11.372,7.7h-9.132l-1.251-5.014h11.634Z" transform="translate(-1171 -4239.035)" fill="#7f7f7f"/></svg>