<svg xmlns="http://www.w3.org/2000/svg" width="16.476" height="16.476" viewBox="0 0 16.476 16.476"><path d="M1186.76,2245.777a.713.713,0,0,1-.5-.2l-7.021-6.855-7.021,6.855a.716.716,0,1,1-1-1.025l7.522-7.344a.716.716,0,0,1,1,0l7.522,7.344a.716.716,0,0,1-.5,1.229Zm-1.568,6.982v-7a.716.716,0,1,0-1.433,0v6.283h-2.238v-3.831a.952.952,0,0,0-.95-.951h-2.665a.952.952,0,0,0-.95.951v3.831h-2.238v-6.283a.716.716,0,1,0-1.433,0v7a.717.717,0,0,0,.716.717h3.671a.716.716,0,0,0,.716-.717V2248.7h1.7v4.064a.716.716,0,0,0,.716.717h3.671A.716.716,0,0,0,1185.192,2252.76Z" transform="translate(-1171 -2237)" fill="#7f7f7f"/></svg>