<svg xmlns="http://www.w3.org/2000/svg" width="14.327" height="12.894" viewBox="0 0 14.327 12.894"><path d="M1634.61,2026.433h-12.894a.716.716,0,0,1,0-1.433h12.894a.716.716,0,1,1,0,1.433Zm.716,3.112a.716.716,0,0,0-.716-.716h-12.894a.716.716,0,0,0,0,1.433h12.894A.716.716,0,0,0,1635.327,2029.545Zm0,3.817a.716.716,0,0,0-.716-.716h-12.894a.716.716,0,1,0,0,1.432h12.894A.716.716,0,0,0,1635.327,2033.361Zm-6.455,3.816a.716.716,0,0,0-.716-.716h-6.391a.716.716,0,1,0,0,1.433h6.391A.716.716,0,0,0,1628.872,2037.178Z" transform="translate(-1621 -2025)" fill="#7f7f7f"/></svg>