<svg xmlns="http://www.w3.org/2000/svg" width="15.453" height="15.76" viewBox="0 0 15.453 15.76"><path d="M497.815,491.921a5.613,5.613,0,0,0,0,11.226,5.474,5.474,0,0,0,3.218-1.046l5.267,5.341a.8.8,0,1,0,1.141-1.125l-5.258-5.332a5.624,5.624,0,0,0-4.368-9.063Zm0,9.8a4.158,4.158,0,0,1-4.12-4.189v-.069a4.189,4.189,0,1,1,4.12,4.257Zm-2.779-4.123a2.786,2.786,0,0,1,1.686-2.745h0a.623.623,0,0,1,.509,1.138c-.045.021-1.084.508-.96,1.441a.623.623,0,0,1-1.235.165Zm1.312,1.367a.716.716,0,0,1,.5-.211.709.709,0,1,1-.5.21Z" transform="translate(-492.218 -491.921)" fill="#7f7f7f"/></svg>